<svg id="google" xmlns="http://www.w3.org/2000/svg" width="23.647" height="23.646" viewBox="0 0 23.647 23.646">
  <path id="Path_1086" data-name="Path 1086" d="M5.542,107.41a6.243,6.243,0,0,1,.884-3.209v-3.986H2.44a11.83,11.83,0,0,0,0,14.39H6.426v-3.986A6.243,6.243,0,0,1,5.542,107.41Z" transform="translate(0 -95.587)" fill="#fbbd00"/>
  <path id="Path_1087" data-name="Path 1087" d="M198.771,373.84,196,376.611l2.771,2.771a11.734,11.734,0,0,0,7.2-2.44v-3.982h-3.982A6.28,6.28,0,0,1,198.771,373.84Z" transform="translate(-186.948 -355.736)" fill="#0f9d58"/>
  <path id="Path_1088" data-name="Path 1088" d="M56.809,325.477l-3.986,3.986a12.017,12.017,0,0,0,1.023,1.166,11.746,11.746,0,0,0,8.36,3.463v-5.542A6.284,6.284,0,0,1,56.809,325.477Z" transform="translate(-50.383 -310.445)" fill="#31aa52"/>
  <path id="Path_1089" data-name="Path 1089" d="M267.823,200.034a11.928,11.928,0,0,0-.194-2.142l-.1-.568H256v5.542h5.609a6.253,6.253,0,0,1-2.4,2.57l3.982,3.982a12.011,12.011,0,0,0,1.165-1.023A11.746,11.746,0,0,0,267.823,200.034Z" transform="translate(-244.177 -188.211)" fill="#3c79e6"/>
  <path id="Path_1090" data-name="Path 1090" d="M203.213,7.382l.49.49,3.919-3.919-.49-.49A11.746,11.746,0,0,0,198.771,0L196,2.771l2.771,2.771A6.24,6.24,0,0,1,203.213,7.382Z" transform="translate(-186.948)" fill="#cf2d48"/>
  <path id="Path_1091" data-name="Path 1091" d="M62.206,5.542V0a11.746,11.746,0,0,0-8.36,3.463,12,12,0,0,0-1.023,1.165l3.986,3.986a6.284,6.284,0,0,1,5.4-3.072Z" transform="translate(-50.382 0)" fill="#eb4132"/>
</svg>
